<svg width="36" height="36" viewBox="0 0 36 36" fill="none" xmlns="http://www.w3.org/2000/svg">
<g clip-path="url(#clip0_0_765)">
<path d="M23.7918 17.7608C27.2344 19.476 29.5931 23.0554 29.5931 27.9131V33.7145H6.38779V27.9131C6.38779 23.0483 8.75341 19.4656 12.1891 17.7608M26.6925 10.5091C26.6925 15.3151 22.7964 19.2111 17.9905 19.2111C13.1845 19.2111 9.28845 15.3151 9.28845 10.5091M26.6925 10.5091C26.6925 5.70315 22.7964 1.80713 17.9905 1.80713C13.1845 1.80713 9.28845 5.70315 9.28845 10.5091M26.6925 10.5091C24.517 10.5091 22.3415 11.0313 19.4408 7.60846C16.5401 11.0313 12.9143 11.9595 9.28845 10.5091M10.7388 19.2111L18.0266 26.8358L25.2421 19.2111M17.9905 26.4628V33.7145" stroke="white" stroke-width="2.67754"/>
</g>
<defs>
<clipPath id="clip0_0_765">
<rect width="34.808" height="34.808" fill="white" transform="translate(0.585999 0.356445)"/>
</clipPath>
</defs>
</svg>
