<svg width="34" height="36" viewBox="0 0 34 36" fill="none" xmlns="http://www.w3.org/2000/svg">
<g clip-path="url(#clip0_79_32)">
<path fill-rule="evenodd" clip-rule="evenodd" d="M9.16113 0.763123V12.4688H11.05V2.71407H26.4444V12.4688V12.5012L26.5269 12.4931L28.3333 12.5012V12.4688V0.763123H9.16113Z" fill="black"/>
<path fill-rule="evenodd" clip-rule="evenodd" d="M0 4.66501H7.27223V6.62204H1.89479V33.0418C1.89479 33.5819 2.3211 34.0205 2.84217 34.0205H27.5009C27.9499 34.0205 28.3402 33.6896 28.4293 33.2336L31.6864 16.4072H10.5519L6.02526 31.3765L4.21573 30.7932L9.16112 14.4501H34L30.2882 33.6173C30.0229 34.9852 28.8501 35.9774 27.5009 35.9774H2.84217C1.27519 35.9774 0 34.6604 0 33.0418V4.66501Z" fill="black"/>
<path fill-rule="evenodd" clip-rule="evenodd" d="M12.2778 8.56687C12.2778 6.95066 13.5463 5.64047 15.1111 5.64047C16.6759 5.64047 17.9444 6.95066 17.9444 8.56687C17.9444 10.1831 16.6759 11.4933 15.1111 11.4933C13.5463 11.4933 12.2778 10.1831 12.2778 8.56687ZM15.1111 7.59142C14.5895 7.59142 14.1667 8.02815 14.1667 8.56687C14.1667 9.10561 14.5895 9.54234 15.1111 9.54234C15.6327 9.54234 16.0556 9.10561 16.0556 8.56687C16.0556 8.02815 15.6327 7.59142 15.1111 7.59142Z" fill="black"/>
<path fill-rule="evenodd" clip-rule="evenodd" d="M24.5556 7.5914H19.8333V9.54233H24.5556V7.5914Z" fill="black"/>
</g>
<defs>
<clipPath id="clip0_79_32">
<rect width="34" height="35.2143" fill="white" transform="translate(0 0.763123)"/>
</clipPath>
</defs>
</svg>
