<svg width="46" height="46" viewBox="0 0 46 46" fill="none" xmlns="http://www.w3.org/2000/svg">
<path d="M32.4043 10.0548H30.8838V3.34879C30.8838 3.00601 30.6113 2.73355 30.2686 2.73355H15.7314C15.3887 2.73355 15.1162 3.00601 15.1162 3.34879V10.0461H13.5957C12.1016 10.0461 10.8887 11.2589 10.8887 12.7531V41.2824C10.8887 42.7765 12.1016 43.9894 13.5957 43.9894H32.4043C33.8984 43.9894 35.1113 42.7765 35.1113 41.2824V12.7619C35.1201 11.2677 33.8984 10.0548 32.4043 10.0548ZM16.3467 3.96402H29.6533V10.6613V15.9875H16.3467V10.6701V3.96402ZM33.8897 41.2912C33.8897 42.1086 33.2217 42.7677 32.4131 42.7677H13.5957C12.7783 42.7677 12.1191 42.1086 12.1191 41.2912V12.7619C12.1191 11.9445 12.7871 11.2853 13.5957 11.2853H15.1162V15.9875H14.334C13.9912 15.9875 13.7187 16.2599 13.7187 16.6027C13.7187 16.9455 13.9912 17.2179 14.334 17.2179H15.7314H30.2686H32C32.3428 17.2179 32.6152 16.9455 32.6152 16.6027C32.6152 16.2599 32.3428 15.9875 32 15.9875H30.8838V11.2853H32.4043C33.2217 11.2853 33.8809 11.9533 33.8809 12.7619V41.2912H33.8897Z" fill="#333333"/>
<path d="M32 19.547H14.3428C14 19.547 13.7275 19.8195 13.7275 20.1623V25.6554C13.7275 25.9982 14 26.2707 14.3428 26.2707H32C32.3428 26.2707 32.6152 25.9982 32.6152 25.6554V20.1623C32.6152 19.8195 32.3428 19.547 32 19.547ZM31.3848 25.0402H14.958V20.7775H31.3848V25.0402Z" fill="#333333"/>
<path d="M18.8516 28.424H15.2041C14.8613 28.424 14.5889 28.6964 14.5889 29.0392V32.6867C14.5889 33.0294 14.8613 33.3019 15.2041 33.3019H18.8516C19.1943 33.3019 19.4668 33.0294 19.4668 32.6867V29.0392C19.4668 28.6964 19.1855 28.424 18.8516 28.424ZM18.2363 32.0714H15.8193V29.6544H18.2363V32.0714Z" fill="#333333"/>
<path d="M24.8281 28.424H21.1807C20.8379 28.424 20.5654 28.6964 20.5654 29.0392V32.6867C20.5654 33.0294 20.8379 33.3019 21.1807 33.3019H24.8281C25.1709 33.3019 25.4434 33.0294 25.4434 32.6867V29.0392C25.4434 28.6964 25.1621 28.424 24.8281 28.424ZM24.2129 32.0714H21.7959V29.6544H24.2129V32.0714Z" fill="#333333"/>
<path d="M30.8047 28.424H27.1572C26.8145 28.424 26.542 28.6964 26.542 29.0392V32.6867C26.542 33.0294 26.8145 33.3019 27.1572 33.3019H30.8047C31.1475 33.3019 31.4199 33.0294 31.4199 32.6867V29.0392C31.4199 28.6964 31.1387 28.424 30.8047 28.424ZM30.1895 32.0714H27.7725V29.6544H30.1895V32.0714Z" fill="#333333"/>
<path d="M18.8516 35.4552H15.2041C14.8613 35.4552 14.5889 35.7277 14.5889 36.0705V39.7179C14.5889 40.0607 14.8613 40.3332 15.2041 40.3332H18.8516C19.1943 40.3332 19.4668 40.0607 19.4668 39.7179V36.0705C19.4668 35.7277 19.1855 35.4552 18.8516 35.4552ZM18.2363 39.1027H15.8193V36.6857H18.2363V39.1027Z" fill="#333333"/>
<path d="M24.8281 35.4552H21.1807C20.8379 35.4552 20.5654 35.7277 20.5654 36.0705V39.7179C20.5654 40.0607 20.8379 40.3332 21.1807 40.3332H24.8281C25.1709 40.3332 25.4434 40.0607 25.4434 39.7179V36.0705C25.4434 35.7277 25.1621 35.4552 24.8281 35.4552ZM24.2129 39.1027H21.7959V36.6857H24.2129V39.1027Z" fill="#333333"/>
<path d="M30.8047 35.4552H27.1572C26.8145 35.4552 26.542 35.7277 26.542 36.0705V39.7179C26.542 40.0607 26.8145 40.3332 27.1572 40.3332H30.8047C31.1475 40.3332 31.4199 40.0607 31.4199 39.7179V36.0705C31.4199 35.7277 31.1387 35.4552 30.8047 35.4552ZM30.1895 39.1027H27.7725V36.6857H30.1895V39.1027Z" fill="#333333"/>
</svg>
