<svg width="36" height="36" viewBox="0 0 36 36" fill="none" xmlns="http://www.w3.org/2000/svg">
<g clip-path="url(#clip0_0_756)">
<path d="M6.38766 13.4091C6.38766 12.6081 7.03701 11.9587 7.838 11.9587H13.6393C14.4403 11.9587 15.0897 12.6081 15.0897 13.4091C15.0897 14.2101 14.4403 14.8594 13.6393 14.8594H7.838C7.03701 14.8594 6.38766 14.2101 6.38766 13.4091Z" fill="white"/>
<path fill-rule="evenodd" clip-rule="evenodd" d="M6.38742 4.70728C3.18343 4.70728 0.58609 7.30462 0.58609 10.5086V25.0119C0.58609 28.2159 3.18343 30.8133 6.38742 30.8133H29.5928C32.7967 30.8133 35.3941 28.2159 35.3941 25.0119V10.5086C35.3941 7.30462 32.7967 4.70728 29.5928 4.70728H6.38742ZM29.5928 7.60794H6.38742C4.78543 7.60794 3.48676 8.90661 3.48676 10.5086V20.6609H32.4934V10.5086C32.4934 8.90661 31.1948 7.60794 29.5928 7.60794ZM32.4934 23.5616H3.48676V25.0119C3.48676 26.614 4.78543 27.9126 6.38742 27.9126H29.5928C31.1948 27.9126 32.4934 26.614 32.4934 25.0119V23.5616Z" fill="white"/>
</g>
<defs>
<clipPath id="clip0_0_756">
<rect width="34.808" height="34.808" fill="white" transform="translate(0.585999 0.356323)"/>
</clipPath>
</defs>
</svg>
