<svg width="37" height="37" viewBox="0 0 37 37" fill="none" xmlns="http://www.w3.org/2000/svg">
<rect x="0.699951" y="0.270508" width="36" height="36" rx="18" fill="#7C7E82"/>
<path d="M26.45 18.2705C26.45 22.1455 23.6062 25.3643 19.8875 25.9268V20.5205H21.7L22.0437 18.2705H19.8875V16.833C19.8875 16.208 20.2 15.6143 21.1687 15.6143H22.1375V13.708C22.1375 13.708 21.2625 13.5518 20.3875 13.5518C18.6375 13.5518 17.4812 14.6455 17.4812 16.583V18.2705H15.5125V20.5205H17.4812V25.9268C13.7625 25.3643 10.95 22.1455 10.95 18.2705C10.95 13.9893 14.4187 10.5205 18.7 10.5205C22.9812 10.5205 26.45 13.9893 26.45 18.2705Z" fill="white"/>
</svg>
