<svg width="37" height="37" viewBox="0 0 37 37" fill="none" xmlns="http://www.w3.org/2000/svg">
<rect x="0.699951" y="0.270508" width="36" height="36" rx="18" fill="#7C7E82"/>
<path d="M24.7 11.2705C25.2312 11.2705 25.7 11.7393 25.7 12.3018V24.2705C25.7 24.833 25.2312 25.2705 24.7 25.2705H12.6687C12.1375 25.2705 11.7 24.833 11.7 24.2705V12.3018C11.7 11.7393 12.1375 11.2705 12.6687 11.2705H24.7ZM15.9187 23.2705V16.6143H13.8562V23.2705H15.9187ZM14.8875 15.6768C15.5437 15.6768 16.075 15.1455 16.075 14.4893C16.075 13.833 15.5437 13.2705 14.8875 13.2705C14.2 13.2705 13.6687 13.833 13.6687 14.4893C13.6687 15.1455 14.2 15.6768 14.8875 15.6768ZM23.7 23.2705V19.6143C23.7 17.833 23.2937 16.4268 21.2 16.4268C20.2 16.4268 19.5125 16.9893 19.2312 17.5205H19.2V16.6143H17.2312V23.2705H19.2937V19.9893C19.2937 19.1143 19.45 18.2705 20.5437 18.2705C21.6062 18.2705 21.6062 19.2705 21.6062 20.0205V23.2705H23.7Z" fill="white"/>
</svg>
