<svg width="148" height="55" viewBox="0 0 148 55" fill="none" xmlns="http://www.w3.org/2000/svg">
<path opacity="0.3" fill-rule="evenodd" clip-rule="evenodd" d="M33.085 6.94531C24.8531 13.5163 3.21814 16.4588 1.125 24.6183V37.4895C1.125 40.9735 2.26831 43.8619 5.41682 46.4253C1.40643 33.3375 31.9945 35.3774 33.085 24.2392V6.94531Z" fill="white"/>
<path opacity="0.5" fill-rule="evenodd" clip-rule="evenodd" d="M24.7866 11.1615L24.7462 2.94531C14.4298 10.1681 1.99345 11.4513 1.08496 24.9655V39.7216C1.08496 41.7084 1.40798 43.5296 2.17515 45.2059C2.01364 29.1668 24.9077 35.5617 24.8269 20.3711L24.7866 11.1615Z" fill="white"/>
<path fill-rule="evenodd" clip-rule="evenodd" d="M0.387454 52.0791C0.387454 52.1205 0.407642 52.1619 0.407642 52.224L0.387454 52.0791ZM0.367265 51.8928C0.367265 51.9342 0.387454 51.9963 0.387454 52.0377L0.367265 51.8928ZM0.266321 51.3754C0.266321 51.4375 0.28651 51.4789 0.28651 51.541L0.266321 51.3754ZM0.205755 50.8374C0.205755 50.8994 0.225944 50.9408 0.225944 51.0029L0.205755 50.8374ZM0.145189 50.1337C0.145189 50.1958 0.145189 50.2372 0.145189 50.2993V50.1337ZM0.145189 49.9267C0.145189 49.9888 0.145189 50.0302 0.145189 50.0923V49.9267ZM0.125 49.7612C0.125 49.8233 0.125 49.8647 0.125 49.9267V49.7612ZM0.125 49.5749C0.125 49.637 0.125 49.6784 0.125 49.7405V49.5749ZM0.125 34.4463V49.2024C0.125 49.2645 0.125 49.3266 0.125 49.3887C0.125 49.4507 0.125 49.4921 0.125 49.5542V49.5749V49.5956C0.125 49.6577 0.125 49.6991 0.125 49.7612V49.7819C0.125 49.844 0.125 49.8854 0.125 49.9474C0.125 50.0095 0.125 50.0509 0.125 50.113V50.1337V50.2993C0.125 50.4234 0.145189 50.5269 0.145189 50.6511V50.6718L0.165378 50.8167C0.165378 50.8787 0.185566 50.9201 0.185566 50.9822V51.0029V51.0236L0.205755 51.1685V51.1892V51.2099C0.205755 51.272 0.225944 51.3134 0.225944 51.3754C0.225944 51.4375 0.246132 51.4789 0.246132 51.541V51.5617C0.246132 51.6238 0.266321 51.6652 0.266321 51.7273V51.748C0.266321 51.8101 0.28651 51.8514 0.28651 51.9135V51.9342C0.28651 51.9756 0.306699 52.0377 0.306699 52.0791V52.0998V52.1205C0.306699 52.1619 0.326887 52.2033 0.326887 52.2654V52.2861L0.367265 52.4309V52.4516V52.4723C0.387454 52.5137 0.387454 52.5758 0.407642 52.6172V52.6379C0.427831 52.7 0.427831 52.7414 0.44802 52.8035V52.8241C0.468208 52.8862 0.468208 52.9276 0.488397 52.9897C0.508586 53.0311 0.508586 53.0932 0.528775 53.1346V53.1553C0.548963 53.1967 0.548963 53.2588 0.569152 53.3002V53.3208C0.589341 53.3622 0.589341 53.4243 0.60953 53.4657V53.4864C0.629718 53.5278 0.649907 53.5899 0.649907 53.6313C0.670096 53.6727 0.690285 53.7348 0.710473 53.7762V53.7968C0.730662 53.8382 0.750851 53.9003 0.771039 53.9417V53.9624C0.791228 54.0038 0.811417 54.0659 0.831606 54.1073L0.851794 54.1487C0.871983 54.1901 0.892172 54.2315 0.912361 54.2728L0.932549 54.2935L0.993116 54.4177L1.0133 54.4591L1.07387 54.5833L1.09406 54.6247L1.13444 54.7282C1.05368 38.6476 23.9477 45.0426 23.8669 29.8519L23.8266 20.6423C13.4294 24.5952 1.7401 28.1755 0.125 34.4463Z" fill="white"/>
<path d="M55.598 18.6739C55.8795 18.2938 56.1047 17.8223 56.2736 17.2593C56.4425 16.6963 56.5269 16.0137 56.5269 15.2114C56.5269 14.5498 56.4495 13.9094 56.2947 13.2901C56.154 12.6708 55.9217 12.1219 55.598 11.6433C55.2742 11.1507 54.852 10.7636 54.3312 10.4821C53.8104 10.1865 53.177 10.0387 52.4311 10.0387C51.6851 10.0387 51.0517 10.1865 50.5309 10.4821C50.0101 10.7636 49.5879 11.1507 49.2641 11.6433C48.9404 12.1219 48.7011 12.6708 48.5463 13.2901C48.4055 13.9094 48.3352 14.5498 48.3352 15.2114C48.3352 15.8447 48.4055 16.4641 48.5463 17.0693C48.7011 17.6605 48.9404 18.1953 49.2641 18.6739C49.5879 19.1524 50.0101 19.5395 50.5309 19.8351C51.0517 20.1166 51.6851 20.2573 52.4311 20.2573C52.7829 20.2573 53.0504 20.2433 53.2333 20.2151C53.4163 20.187 53.5923 20.1307 53.7612 20.0462L52.3466 18.7583L53.8878 17.1115L55.598 18.6739ZM56.0836 22.1575C55.0842 22.7346 53.8667 23.0231 52.4311 23.0231C51.2769 23.0231 50.2353 22.8261 49.3064 22.4319C48.3915 22.0238 47.6173 21.4678 46.9839 20.764C46.3506 20.0603 45.865 19.2369 45.5272 18.2938C45.1894 17.3367 45.0205 16.3092 45.0205 15.2114C45.0205 14.0853 45.1894 13.0438 45.5272 12.0867C45.865 11.1155 46.3506 10.271 46.9839 9.55313C47.6173 8.83529 48.3915 8.27229 49.3064 7.8641C50.2353 7.45592 51.2769 7.25183 52.4311 7.25183C53.5993 7.25183 54.6409 7.45592 55.5558 7.8641C56.4706 8.27229 57.2448 8.83529 57.8782 9.55313C58.5115 10.271 58.9971 11.1155 59.3349 12.0867C59.6728 13.0438 59.8417 14.0853 59.8417 15.2114C59.8417 16.3092 59.6728 17.3297 59.3349 18.2727C58.9971 19.2158 58.5115 20.0462 57.8782 20.764L59.7572 22.4742L58.216 24.0787L56.0836 22.1575ZM72.0305 22.6853H69.1803V21.1652H69.1169C68.7369 21.7986 68.2443 22.256 67.639 22.5375C67.0338 22.819 66.4145 22.9598 65.7811 22.9598C64.9788 22.9598 64.3173 22.8542 63.7965 22.6431C63.2898 22.4319 62.8887 22.1364 62.5931 21.7563C62.2975 21.3622 62.0864 20.8907 61.9597 20.3418C61.8471 19.7788 61.7908 19.1595 61.7908 18.4839V11.77H64.7888V17.9349C64.7888 18.8357 64.9296 19.5113 65.2111 19.9617C65.4926 20.3981 65.9922 20.6162 66.7101 20.6162C67.5264 20.6162 68.1176 20.377 68.4836 19.8984C68.8495 19.4058 69.0325 18.6035 69.0325 17.4915V11.77H72.0305V22.6853ZM76.9661 17.2382C76.9661 17.6745 77.0084 18.1038 77.0928 18.5261C77.1773 18.9343 77.318 19.3073 77.5151 19.6451C77.7262 19.9688 78.0007 20.2292 78.3385 20.4262C78.6763 20.6233 79.0985 20.7218 79.6052 20.7218C80.1119 20.7218 80.5342 20.6233 80.872 20.4262C81.2239 20.2292 81.4983 19.9688 81.6954 19.6451C81.9065 19.3073 82.0543 18.9343 82.1388 18.5261C82.2232 18.1038 82.2654 17.6745 82.2654 17.2382C82.2654 16.8019 82.2232 16.3726 82.1388 15.9503C82.0543 15.5281 81.9065 15.1551 81.6954 14.8313C81.4983 14.5076 81.2239 14.2472 80.872 14.0502C80.5342 13.839 80.1119 13.7335 79.6052 13.7335C79.0985 13.7335 78.6763 13.839 78.3385 14.0502C78.0007 14.2472 77.7262 14.5076 77.5151 14.8313C77.318 15.1551 77.1773 15.5281 77.0928 15.9503C77.0084 16.3726 76.9661 16.8019 76.9661 17.2382ZM73.9681 17.2382C73.9681 16.3655 74.1018 15.5773 74.3693 14.8736C74.6367 14.1557 75.0167 13.5505 75.5093 13.0579C76.002 12.5511 76.5931 12.1641 77.2828 11.8967C77.9725 11.6151 78.7466 11.4744 79.6052 11.4744C80.4638 11.4744 81.238 11.6151 81.9276 11.8967C82.6314 12.1641 83.2296 12.5511 83.7222 13.0579C84.2149 13.5505 84.5949 14.1557 84.8623 14.8736C85.1298 15.5773 85.2635 16.3655 85.2635 17.2382C85.2635 18.1109 85.1298 18.8991 84.8623 19.6028C84.5949 20.3066 84.2149 20.9118 83.7222 21.4185C83.2296 21.9112 82.6314 22.2912 81.9276 22.5586C81.238 22.8261 80.4638 22.9598 79.6052 22.9598C78.7466 22.9598 77.9725 22.8261 77.2828 22.5586C76.5931 22.2912 76.002 21.9112 75.5093 21.4185C75.0167 20.9118 74.6367 20.3066 74.3693 19.6028C74.1018 18.8991 73.9681 18.1109 73.9681 17.2382ZM87.2128 11.77H90.063V13.7968H90.1052C90.246 13.459 90.436 13.1493 90.6753 12.8678C90.9146 12.5723 91.189 12.3259 91.4987 12.1289C91.8083 11.9178 92.1391 11.7559 92.491 11.6433C92.8429 11.5307 93.2088 11.4744 93.5888 11.4744C93.7859 11.4744 94.0041 11.5096 94.2433 11.58V14.3669C94.1026 14.3387 93.9337 14.3176 93.7366 14.3035C93.5396 14.2754 93.3496 14.2613 93.1666 14.2613C92.6177 14.2613 92.1532 14.3528 91.7731 14.5358C91.3931 14.7187 91.0835 14.9721 90.8442 15.2958C90.619 15.6055 90.4571 15.9714 90.3586 16.3937C90.2601 16.8159 90.2108 17.2734 90.2108 17.766V22.6853H87.2128V11.77ZM95.2921 15.1269C95.3343 14.4232 95.5102 13.839 95.8199 13.3745C96.1295 12.9101 96.5236 12.5371 97.0022 12.2556C97.4808 11.9741 98.0156 11.777 98.6068 11.6644C99.212 11.5377 99.8172 11.4744 100.422 11.4744C100.971 11.4744 101.527 11.5166 102.09 11.6011C102.653 11.6714 103.167 11.8192 103.632 12.0444C104.096 12.2696 104.476 12.5863 104.772 12.9945C105.067 13.3886 105.215 13.9164 105.215 14.578V20.2573C105.215 20.75 105.243 21.2215 105.3 21.6719C105.356 22.1223 105.454 22.4601 105.595 22.6853H102.555C102.499 22.5164 102.449 22.3475 102.407 22.1786C102.379 21.9956 102.358 21.8126 102.344 21.6297C101.865 22.1223 101.302 22.4671 100.655 22.6642C100.007 22.8612 99.3457 22.9598 98.6701 22.9598C98.1493 22.9598 97.6637 22.8964 97.2133 22.7698C96.7629 22.6431 96.3688 22.446 96.031 22.1786C95.6932 21.9112 95.4258 21.5734 95.2287 21.1652C95.0457 20.757 94.9543 20.2714 94.9543 19.7084C94.9543 19.0891 95.0598 18.5824 95.2709 18.1883C95.4961 17.7801 95.7777 17.4564 96.1155 17.2171C96.4673 16.9778 96.8614 16.8019 97.2978 16.6893C97.7482 16.5626 98.1986 16.4641 98.649 16.3937C99.0994 16.3233 99.5428 16.267 99.9791 16.2248C100.415 16.1826 100.803 16.1192 101.14 16.0348C101.478 15.9503 101.746 15.8307 101.943 15.6758C102.14 15.5069 102.231 15.2677 102.217 14.958C102.217 14.6343 102.161 14.3809 102.048 14.1979C101.95 14.0009 101.809 13.8531 101.626 13.7546C101.457 13.642 101.253 13.5716 101.014 13.5435C100.788 13.5012 100.542 13.4801 100.275 13.4801C99.6835 13.4801 99.219 13.6068 98.8812 13.8601C98.5434 14.1135 98.3464 14.5358 98.2901 15.1269H95.2921ZM102.217 17.3438C102.09 17.4564 101.929 17.5479 101.731 17.6182C101.548 17.6745 101.344 17.7238 101.119 17.766C100.908 17.8082 100.683 17.8434 100.444 17.8716C100.204 17.8997 99.965 17.9349 99.7257 17.9771C99.5005 18.0194 99.2753 18.0757 99.0501 18.146C98.839 18.2164 98.649 18.3149 98.4801 18.4416C98.3253 18.5542 98.1986 18.702 98.1001 18.885C98.0015 19.068 97.9523 19.3002 97.9523 19.5817C97.9523 19.8491 98.0015 20.0744 98.1001 20.2573C98.1986 20.4403 98.3323 20.5881 98.5012 20.7007C98.6701 20.7992 98.8672 20.8696 99.0924 20.9118C99.3176 20.9541 99.5498 20.9752 99.7891 20.9752C100.38 20.9752 100.838 20.8766 101.161 20.6796C101.485 20.4825 101.724 20.2503 101.879 19.9829C102.034 19.7014 102.126 19.4199 102.154 19.1383C102.196 18.8568 102.217 18.6316 102.217 18.4627V17.3438ZM47.3851 32.6107H57.667L57.2026 34.8909H49.5386L48.7152 38.839H55.3657L54.9013 40.9925H48.2718L46.8784 47.6853H44.2393L47.3851 32.6107ZM59.6046 32.6107H61.9904L61.5259 34.8909H59.1401L59.6046 32.6107ZM58.739 36.77H61.1459L58.8868 47.6853H56.4799L58.739 36.77ZM63.8316 36.77H66.0907L65.7529 38.3534L65.7951 38.3957C66.2315 37.7904 66.7734 37.3189 67.4208 36.9811C68.0824 36.6433 68.7932 36.4744 69.5532 36.4744C70.6511 36.4744 71.4534 36.7348 71.9601 37.2556C72.4809 37.7764 72.7413 38.4801 72.7413 39.3669C72.7413 39.5639 72.7342 39.7891 72.7201 40.0425C72.7061 40.2958 72.6779 40.521 72.6357 40.7181L71.1789 47.6853H68.772L70.1655 40.9503C70.2077 40.7673 70.2429 40.5914 70.2711 40.4225C70.3133 40.2536 70.3344 40.0917 70.3344 39.9369C70.3344 39.8524 70.3274 39.7258 70.3133 39.5569C70.3133 39.3739 70.264 39.1979 70.1655 39.029C70.067 38.8461 69.8981 38.6912 69.6588 38.5646C69.4336 38.4379 69.1028 38.3745 68.6665 38.3745C68.1879 38.3745 67.7586 38.4801 67.3786 38.6912C67.0126 38.8883 66.6819 39.1346 66.3863 39.4302C66.1048 39.7117 65.8585 40.0636 65.6474 40.4858C65.4503 40.894 65.3025 41.3233 65.204 41.7737L63.9794 47.6853H61.5726L63.8316 36.77ZM76.1662 44.6873C76.1662 44.9547 76.2225 45.1799 76.3351 45.3629C76.4617 45.5318 76.6166 45.6725 76.7995 45.7851C76.9825 45.8837 77.1866 45.9611 77.4118 46.0174C77.637 46.0596 77.8622 46.0807 78.0874 46.0807C78.6786 46.0807 79.1712 45.9822 79.5653 45.7851C79.9735 45.5881 80.3043 45.3207 80.5576 44.9829C80.825 44.6451 81.0291 44.251 81.1699 43.8005C81.3247 43.3361 81.4444 42.8434 81.5288 42.3226L81.4866 42.2804C81.3177 42.4493 81.0925 42.569 80.811 42.6393C80.5295 42.7097 80.255 42.759 79.9876 42.7871C79.6498 42.8153 79.2557 42.8434 78.8053 42.8716C78.3689 42.8997 77.9537 42.9771 77.5596 43.1038C77.1796 43.2164 76.8488 43.3994 76.5673 43.6528C76.2999 43.892 76.1662 44.2369 76.1662 44.6873ZM83.4078 44.5184C83.3656 44.7154 83.3164 44.9054 83.2601 45.0884C83.2178 45.2714 83.1967 45.4403 83.1967 45.5951C83.1967 45.75 83.2319 45.8696 83.3023 45.9541C83.3727 46.0385 83.5064 46.0807 83.7034 46.0807C83.8442 46.0807 83.9849 46.0667 84.1257 46.0385C84.2664 45.9963 84.4072 45.9681 84.5479 45.9541L84.1679 47.6853C83.8583 47.7557 83.5486 47.819 83.2389 47.8753C82.9293 47.9457 82.6126 47.9809 82.2889 47.9809C81.8807 47.9809 81.5429 47.8542 81.2755 47.6009C81.008 47.3475 80.8602 47.0097 80.8321 46.5874C80.3535 47.066 79.7905 47.4179 79.1431 47.6431C78.4956 47.8683 77.8341 47.9809 77.1585 47.9809C76.708 47.9809 76.2788 47.9175 75.8706 47.7909C75.4624 47.6642 75.0964 47.4812 74.7727 47.2419C74.4631 47.0027 74.2167 46.7 74.0338 46.3341C73.8508 45.9681 73.7593 45.5459 73.7593 45.0673C73.7593 44.3917 73.886 43.8287 74.1393 43.3783C74.3927 42.9138 74.7305 42.5338 75.1527 42.2382C75.575 41.9426 76.0606 41.7245 76.6095 41.5837C77.1585 41.4429 77.7355 41.3515 78.3408 41.3092C79.1571 41.2529 79.9594 41.1896 80.7476 41.1192C81.184 41.0911 81.5007 40.9503 81.6977 40.697C81.9088 40.4295 82.0144 40.0917 82.0144 39.6835C82.0144 39.1628 81.8314 38.8179 81.4655 38.649C81.0995 38.466 80.6702 38.3745 80.1776 38.3745C79.502 38.3745 78.9179 38.4942 78.4252 38.7335C77.9467 38.9587 77.6229 39.4091 77.454 40.0847H75.1738C75.3005 39.4091 75.5187 38.8461 75.8283 38.3957C76.138 37.9312 76.518 37.5582 76.9684 37.2767C77.4188 36.9811 77.9256 36.777 78.4886 36.6644C79.0656 36.5377 79.6779 36.4744 80.3254 36.4744C81.3106 36.4744 82.0777 36.5729 82.6267 36.77C83.1897 36.953 83.5979 37.1782 83.8512 37.4456C84.1186 37.713 84.2805 37.9945 84.3368 38.2901C84.3931 38.5716 84.4213 38.8109 84.4213 39.0079C84.4213 39.4865 84.3509 40.0354 84.2101 40.6547L83.4078 44.5184ZM87.6867 36.77H89.9457L89.6079 38.3534L89.6501 38.3957C90.0865 37.7904 90.6284 37.3189 91.2758 36.9811C91.9374 36.6433 92.6482 36.4744 93.4082 36.4744C94.5061 36.4744 95.3084 36.7348 95.8151 37.2556C96.3359 37.7764 96.5963 38.4801 96.5963 39.3669C96.5963 39.5639 96.5892 39.7891 96.5752 40.0425C96.5611 40.2958 96.5329 40.521 96.4907 40.7181L95.0339 47.6853H92.6271L94.0205 40.9503C94.0627 40.7673 94.0979 40.5914 94.1261 40.4225C94.1683 40.2536 94.1894 40.0917 94.1894 39.9369C94.1894 39.8524 94.1824 39.7258 94.1683 39.5569C94.1683 39.3739 94.119 39.1979 94.0205 39.029C93.922 38.8461 93.7531 38.6912 93.5138 38.5646C93.2886 38.4379 92.9578 38.3745 92.5215 38.3745C92.0429 38.3745 91.6136 38.4801 91.2336 38.6912C90.8677 38.8883 90.5369 39.1346 90.2413 39.4302C89.9598 39.7117 89.7135 40.0636 89.5024 40.4858C89.3053 40.894 89.1575 41.3233 89.059 41.7737L87.8344 47.6853H85.4276L87.6867 36.77ZM106.207 40.3803C106.235 39.7047 106.052 39.205 105.658 38.8813C105.264 38.5435 104.729 38.3745 104.054 38.3745C103.448 38.3745 102.921 38.5294 102.47 38.839C102.02 39.1487 101.647 39.5428 101.351 40.0213C101.056 40.4999 100.83 41.0277 100.676 41.6048C100.535 42.1678 100.465 42.7097 100.465 43.2305C100.465 43.6387 100.507 44.0187 100.591 44.3706C100.676 44.7084 100.809 45.004 100.992 45.2573C101.189 45.5107 101.443 45.7148 101.752 45.8696C102.062 46.0104 102.442 46.0807 102.893 46.0807C103.61 46.0807 104.194 45.8907 104.645 45.5107C105.109 45.1307 105.44 44.6028 105.637 43.9272H108.044C107.65 45.3347 106.988 46.3622 106.059 47.0097C105.13 47.6572 103.941 47.9809 102.491 47.9809C101.774 47.9809 101.14 47.8683 100.591 47.6431C100.042 47.4179 99.5778 47.1012 99.1978 46.693C98.8318 46.2707 98.5503 45.7781 98.3533 45.2151C98.1562 44.638 98.0577 44.0046 98.0577 43.3149C98.0577 42.4001 98.1984 41.5274 98.4799 40.697C98.7614 39.8665 99.1696 39.1416 99.7045 38.5223C100.239 37.889 100.887 37.3893 101.647 37.0233C102.421 36.6574 103.294 36.4744 104.265 36.4744C104.87 36.4744 105.44 36.5588 105.975 36.7277C106.51 36.8967 106.974 37.143 107.368 37.4667C107.763 37.7904 108.072 38.1986 108.297 38.6912C108.523 39.1839 108.628 39.7469 108.614 40.3803H106.207ZM118.023 41.267C118.037 41.1966 118.044 41.1403 118.044 41.0981C118.044 41.0418 118.044 40.9855 118.044 40.9292V40.5914C118.044 39.9439 117.84 39.4161 117.432 39.0079C117.024 38.5857 116.461 38.3745 115.743 38.3745C114.842 38.3745 114.124 38.649 113.59 39.1979C113.055 39.7328 112.668 40.4225 112.428 41.267H118.023ZM119.776 44.3073C119.396 45.5881 118.755 46.5241 117.854 47.1153C116.954 47.6923 115.842 47.9809 114.519 47.9809C113.829 47.9809 113.188 47.8753 112.597 47.6642C112.02 47.439 111.521 47.1223 111.098 46.7141C110.676 46.2919 110.345 45.7922 110.106 45.2151C109.867 44.6239 109.747 43.9554 109.747 43.2094C109.747 42.3649 109.881 41.5415 110.148 40.7392C110.416 39.9369 110.803 39.2191 111.309 38.5857C111.83 37.9523 112.464 37.4456 113.21 37.0656C113.97 36.6714 114.835 36.4744 115.806 36.4744C116.778 36.4744 117.566 36.6363 118.171 36.96C118.776 37.2837 119.248 37.6919 119.586 38.1845C119.923 38.6772 120.149 39.2191 120.261 39.8102C120.388 40.4014 120.451 40.9644 120.451 41.4992C120.451 41.7667 120.437 42.013 120.409 42.2382C120.381 42.4634 120.353 42.6675 120.325 42.8505H112.196C112.182 42.9208 112.168 42.9842 112.154 43.0405C112.154 43.0968 112.154 43.1531 112.154 43.2094V43.5472C112.154 44.3073 112.351 44.9195 112.745 45.384C113.153 45.8485 113.822 46.0807 114.751 46.0807C115.398 46.0807 115.954 45.9329 116.419 45.6374C116.883 45.3418 117.2 44.8984 117.369 44.3073H119.776Z" fill="white"/>
</svg>
