<svg width="18" height="14" viewBox="0 0 18 14" fill="none" xmlns="http://www.w3.org/2000/svg">
<path d="M17.6484 4.5C17.7891 4.39453 18 4.5 18 4.67578V11.8477C18 12.7969 17.2266 13.5352 16.3125 13.5352H1.6875C0.738281 13.5352 0 12.7969 0 11.8477V4.67578C0 4.5 0.175781 4.39453 0.316406 4.5C1.125 5.13281 2.14453 5.90625 5.73047 8.50781C6.46875 9.03516 7.73438 10.1953 9 10.1953C10.2305 10.1953 11.5312 9.03516 12.2344 8.50781C15.8203 5.90625 16.8398 5.13281 17.6484 4.5ZM9 9.03516C8.15625 9.07031 6.99609 8.01562 6.39844 7.59375C1.72266 4.21875 1.37109 3.90234 0.316406 3.05859C0.105469 2.91797 0 2.67188 0 2.39062V1.72266C0 0.808594 0.738281 0.0351562 1.6875 0.0351562H16.3125C17.2266 0.0351562 18 0.808594 18 1.72266V2.39062C18 2.67188 17.8594 2.91797 17.6484 3.05859C16.5938 3.90234 16.2422 4.21875 11.5664 7.59375C10.9688 8.01562 9.80859 9.07031 9 9.03516Z" fill="white"/>
</svg>
