<svg width="36" height="36" viewBox="0 0 36 36" fill="none" xmlns="http://www.w3.org/2000/svg">
<g clip-path="url(#clip0_0_731)">
<path d="M35.394 0.356323H0.585999V35.1643H35.394V0.356323Z" fill="white" fill-opacity="0.01"/>
<path d="M17.9898 32.2641C25.9998 32.2641 32.4931 25.7707 32.4931 17.7608C32.4931 9.75078 25.9998 3.25745 17.9898 3.25745C9.97981 3.25745 3.48645 9.75078 3.48645 17.7608C3.48645 25.7707 9.97981 32.2641 17.9898 32.2641Z" stroke="white" stroke-width="2.67754"/>
<path d="M4.93701 22.8261C6.84559 23.5915 8.21955 23.5915 9.05879 22.8261C10.3177 21.6781 9.23138 18.1939 10.9945 17.233C12.7575 16.2721 15.4437 20.5316 17.9543 19.13C20.4649 17.7284 17.7178 13.9912 19.4601 12.4761C21.2024 10.961 23.4679 12.6697 23.8639 10.1364C24.26 7.60304 22.0162 8.70178 21.5857 6.30781C21.2986 4.71185 21.2986 3.87263 21.5857 3.79016" stroke="white" stroke-width="2.67754" stroke-linecap="round"/>
<path d="M21.6313 31.793C20.2723 30.4021 19.783 29.1093 20.1636 27.9144C20.7344 26.122 21.6761 26.228 22.0866 25.1198C22.4972 24.0115 21.3374 22.4331 23.9108 21.0838C25.6264 20.1842 27.9853 21.2265 30.9873 24.2106" stroke="white" stroke-width="2.67754" stroke-linecap="round"/>
</g>
<defs>
<clipPath id="clip0_0_731">
<rect width="34.808" height="34.808" fill="white" transform="translate(0.585999 0.356323)"/>
</clipPath>
</defs>
</svg>
