<svg width="37" height="37" viewBox="0 0 37 37" fill="none" xmlns="http://www.w3.org/2000/svg">
<rect x="0.699951" y="0.270508" width="36" height="36" rx="18" fill="#7C7E82"/>
<path d="M25.0437 15.0205C25.0437 15.1768 25.0437 15.3018 25.0437 15.458C25.0437 19.8018 21.7625 24.7705 15.7312 24.7705C13.8562 24.7705 12.1375 24.2393 10.7 23.3018C10.95 23.333 11.2 23.3643 11.4812 23.3643C13.0125 23.3643 14.4187 22.833 15.5437 21.958C14.1062 21.9268 12.8875 20.9893 12.4812 19.6768C12.7 19.708 12.8875 19.7393 13.1062 19.7393C13.3875 19.7393 13.7 19.6768 13.95 19.6143C12.45 19.3018 11.325 17.9893 11.325 16.3955V16.3643C11.7625 16.6143 12.2937 16.7393 12.825 16.7705C11.9187 16.1768 11.3562 15.1768 11.3562 14.0518C11.3562 13.4268 11.5125 12.8643 11.7937 12.3955C13.4187 14.3643 15.8562 15.6768 18.575 15.833C18.5125 15.583 18.4812 15.333 18.4812 15.083C18.4812 13.2705 19.95 11.8018 21.7625 11.8018C22.7 11.8018 23.5437 12.1768 24.1687 12.833C24.8875 12.6768 25.6062 12.3955 26.2312 12.0205C25.9812 12.8018 25.4812 13.4268 24.7937 13.833C25.45 13.7705 26.1062 13.583 26.6687 13.333C26.2312 13.9893 25.6687 14.5518 25.0437 15.0205Z" fill="white"/>
</svg>
