<svg width="37" height="37" viewBox="0 0 37 37" fill="none" xmlns="http://www.w3.org/2000/svg">
<rect x="0.699951" y="0.270508" width="36" height="36" rx="18" fill="#7C7E82"/>
<path d="M26.8562 14.1768C27.2312 15.4893 27.2312 18.3018 27.2312 18.3018C27.2312 18.3018 27.2312 21.083 26.8562 22.4268C26.6687 23.1768 26.075 23.7393 25.3562 23.9268C24.0125 24.2705 18.7 24.2705 18.7 24.2705C18.7 24.2705 13.3562 24.2705 12.0125 23.9268C11.2937 23.7393 10.7 23.1768 10.5125 22.4268C10.1375 21.083 10.1375 18.3018 10.1375 18.3018C10.1375 18.3018 10.1375 15.4893 10.5125 14.1768C10.7 13.4268 11.2937 12.833 12.0125 12.6455C13.3562 12.2705 18.7 12.2705 18.7 12.2705C18.7 12.2705 24.0125 12.2705 25.3562 12.6455C26.075 12.833 26.6687 13.4268 26.8562 14.1768ZM16.95 20.833L21.3875 18.3018L16.95 15.7705V20.833Z" fill="white"/>
</svg>
